# xmcd CD database file
# Copyright (C) 1997 Ti Kan
#
# Track frame offsets:
#  150
#  20397
#  32990
#  49322
#  71552
#  88717
#  105697
#  125155
#  138482
#  153775
#  175765
#
# Disc length: 2517 seconds
#
# Revision: 1
# Processed by: cddbd v1.4b41PL1 Copyright (c) Steve Scherf et al.
# Submitted via: CDWizzard Release:4.32
#
DISCID=9509d30b
DTITLE=Annihilator - Set The World On Fire
DYEAR=1900
DGENRE=
TTITLE0=Set The World On Fire
TTITLE1=No Zone
TTITLE2=Bats In The Belfry
TTITLE3=Snake In The Grass
TTITLE4=Phoenix Rising
TTITLE5=Knight Jumps Queen
TTITLE6=Sounds Good To Me
TTITLE7=The Edge
TTITLE8=Don't Bother Me 
TTITLE9=Brain Dance
TTITLE10=Hell Bent For Leather
EXTD=
EXTT0=
EXTT1=
EXTT2=
EXTT3=
EXTT4=
EXTT5=
EXTT6=
EXTT7=
EXTT8=
EXTT9=
EXTT10=
PLAYORDER=
